<svg width="49" height="40" viewBox="0 0 49 40" fill="none" xmlns="http://www.w3.org/2000/svg">
<g id="icn resize icn-md" clip-path="url(#clip0_1_1123)">
<path id="Vector" fill-rule="evenodd" clip-rule="evenodd" d="M46.4166 38.6666C46.4166 38.6666 49.5 38.6666 49.5 35.5555C49.5 32.4444 46.4166 23.111 34.0833 23.111C21.75 23.111 18.6666 32.4444 18.6666 35.5555C18.6666 38.6666 21.75 38.6666 21.75 38.6666H46.4166ZM21.8178 35.5555H46.3488C46.3632 35.5538 46.3776 35.5517 46.392 35.5493L46.4166 35.543C46.4105 34.7217 45.9017 32.3386 44.0733 30.1919C42.3713 28.179 39.3805 26.2221 34.0833 26.2221C28.7892 26.2221 25.7984 28.1821 24.0933 30.1919C22.2649 32.3386 21.753 34.7248 21.75 35.543C21.7725 35.5474 21.7951 35.5516 21.8178 35.5555ZM34.0833 16.8888C35.7188 16.8888 37.2873 16.2333 38.4438 15.0664C39.6003 13.8995 40.25 12.3168 40.25 10.6666C40.25 9.01635 39.6003 7.4337 38.4438 6.26681C37.2873 5.09992 35.7188 4.44436 34.0833 4.44436C32.4478 4.44436 30.8793 5.09992 29.7228 6.26681C28.5663 7.4337 27.9166 9.01635 27.9166 10.6666C27.9166 12.3168 28.5663 13.8995 29.7228 15.0664C30.8793 16.2333 32.4478 16.8888 34.0833 16.8888ZM43.3333 10.6666C43.3333 11.8923 43.094 13.1059 42.6292 14.2383C42.1643 15.3707 41.483 16.3996 40.624 17.2662C39.7651 18.1329 38.7454 18.8204 37.6231 19.2895C36.5009 19.7585 35.298 19.9999 34.0833 19.9999C32.8686 19.9999 31.6657 19.7585 30.5435 19.2895C29.4212 18.8204 28.4015 18.1329 27.5426 17.2662C26.6836 16.3996 26.0023 15.3707 25.5374 14.2383C25.0725 13.1059 24.8333 11.8923 24.8333 10.6666C24.8333 8.19123 25.8078 5.81726 27.5426 4.06692C29.2773 2.31658 31.63 1.33325 34.0833 1.33325C36.5365 1.33325 38.8893 2.31658 40.624 4.06692C42.3587 5.81726 43.3333 8.19123 43.3333 10.6666ZM21.5526 23.9821C20.3192 23.5903 19.0478 23.3326 17.7601 23.2137C17.0366 23.1443 16.3101 23.11 15.5833 23.111C3.24996 23.111 0.166626 32.4444 0.166626 35.5555C0.166626 37.6306 1.19338 38.6666 3.24996 38.6666H16.2493C15.7922 37.6953 15.5642 36.6305 15.5833 35.5555C15.5833 32.4132 16.7457 29.2026 18.9441 26.5208C19.6934 25.6061 20.566 24.7506 21.5526 23.9821ZM15.3366 26.2221C10.1936 26.2844 7.27371 28.2133 5.59329 30.1919C3.75254 32.351 3.24996 34.7435 3.24996 35.5555H12.5C12.5 32.3044 13.4959 29.0657 15.3366 26.2221ZM4.79163 12.2221C4.79163 9.74679 5.76618 7.37282 7.50089 5.62248C9.2356 3.87214 11.5884 2.88881 14.0416 2.88881C16.4949 2.88881 18.8477 3.87214 20.5824 5.62248C22.3171 7.37282 23.2916 9.74679 23.2916 12.2221C23.2916 14.6975 22.3171 17.0715 20.5824 18.8218C18.8477 20.5721 16.4949 21.5555 14.0416 21.5555C11.5884 21.5555 9.2356 20.5721 7.50089 18.8218C5.76618 17.0715 4.79163 14.6975 4.79163 12.2221ZM14.0416 5.99992C12.4061 5.99992 10.8376 6.65547 9.68113 7.82236C8.52466 8.98926 7.87496 10.5719 7.87496 12.2221C7.87496 13.8724 8.52466 15.455 9.68113 16.6219C10.8376 17.7888 12.4061 18.4444 14.0416 18.4444C15.6771 18.4444 17.2456 17.7888 18.4021 16.6219C19.5586 15.455 20.2083 13.8724 20.2083 12.2221C20.2083 10.5719 19.5586 8.98926 18.4021 7.82236C17.2456 6.65547 15.6771 5.99992 14.0416 5.99992Z" fill="#E77C40"/>
</g>
<defs>
<clipPath id="clip0_1_1123">
<rect width="48" height="39.5295" fill="white" transform="translate(0.5)"/>
</clipPath>
</defs>
</svg>
